<?xml version="1.0" standalone="no"?>
<!DOCTYPE svg PUBLIC "-//W3C//DTD SVG 20010904//EN"
 "http://www.w3.org/TR/2001/REC-SVG-20010904/DTD/svg10.dtd">
<svg version="1.0" xmlns="http://www.w3.org/2000/svg"
 width="2000.000000pt" height="2000.000000pt" viewBox="0 0 2000.000000 2000.000000"
 preserveAspectRatio="xMidYMid meet">
<metadata>
Created by potrace 1.14, written by Peter Selinger 2001-2017
</metadata>
<g transform="translate(0.000000,2000.000000) scale(0.100000,-0.100000)"
fill="#000000" stroke="none">
<path d="M5335 15350 c-38 -9 -89 -27 -112 -40 -24 -12 -61 -24 -83 -27 -41
-6 -80 -42 -80 -75 0 -8 -11 -46 -23 -84 -35 -101 -52 -217 -39 -251 17 -43
50 -226 62 -348 12 -110 31 -175 57 -197 28 -23 74 -131 88 -202 7 -39 16
-105 20 -146 10 -108 21 -143 71 -220 58 -91 73 -133 84 -255 21 -208 30 -245
73 -300 68 -85 83 -138 107 -370 8 -73 21 -134 40 -182 l27 -71 -28 -42 c-16
-24 -35 -74 -45 -118 -21 -99 -34 -122 -88 -167 -47 -38 -54 -51 -86 -165 -19
-66 -28 -81 -77 -127 -53 -49 -56 -55 -74 -140 -30 -134 -54 -174 -138 -230
-2 -1 -16 -65 -32 -142 -29 -145 -50 -200 -95 -248 -46 -49 -63 -96 -78 -219
-19 -148 -34 -200 -79 -261 -63 -87 -75 -120 -82 -233 -13 -193 -39 -316 -85
-405 -23 -44 -49 -98 -57 -120 -14 -39 -25 -197 -38 -515 -3 -85 -15 -274 -25
-420 -11 -146 -22 -301 -25 -345 -6 -78 -1 -161 29 -510 8 -93 20 -262 26
-375 6 -113 15 -218 20 -233 5 -15 29 -53 54 -85 58 -74 69 -103 96 -247 24
-131 35 -155 79 -181 37 -22 61 -65 100 -186 28 -85 37 -100 67 -119 43 -26
80 -74 89 -117 8 -37 50 -92 70 -92 19 0 64 -51 89 -100 14 -28 35 -50 59 -63
37 -19 71 -54 110 -116 14 -21 38 -40 64 -50 52 -20 93 -55 93 -79 0 -50 54
-77 94 -47 16 12 17 18 7 42 -6 15 -16 73 -21 128 -11 110 -23 157 -51 196
-63 90 -90 250 -77 455 11 176 30 277 66 352 47 96 53 120 62 264 11 176 33
236 132 360 12 16 24 50 29 84 13 97 48 173 105 232 33 33 55 65 59 85 14 73
38 114 128 217 22 25 50 68 63 95 29 63 49 86 101 118 33 21 45 36 58 76 18
55 39 76 103 105 33 15 45 28 58 63 18 47 55 81 115 106 27 11 40 25 52 55 17
43 65 86 107 97 33 8 51 23 80 65 37 54 43 58 142 104 68 32 107 57 143 95 42
43 61 54 117 69 52 15 79 30 124 70 62 56 117 85 179 96 67 13 129 37 155 61
52 48 124 85 196 100 41 8 107 22 148 31 55 11 87 24 122 51 77 59 156 80 360
97 183 16 233 27 314 70 83 45 221 71 440 83 74 5 455 7 845 7 612 -1 723 -4
805 -18 154 -27 191 -37 263 -73 83 -41 169 -60 317 -68 171 -9 274 -38 340
-95 43 -37 91 -54 193 -70 116 -17 166 -35 225 -80 64 -47 124 -75 209 -97 44
-11 76 -27 105 -53 62 -54 118 -86 190 -110 85 -29 105 -43 131 -96 15 -31 29
-46 47 -50 83 -19 120 -38 187 -99 40 -36 100 -83 135 -104 38 -23 74 -55 92
-81 16 -24 55 -59 90 -81 45 -28 70 -53 96 -96 24 -39 49 -65 78 -81 31 -17
52 -41 82 -92 22 -37 54 -80 72 -95 55 -46 107 -123 126 -188 16 -51 25 -65
52 -79 58 -30 80 -59 102 -135 12 -41 31 -84 42 -96 83 -90 102 -126 126 -238
20 -90 39 -132 92 -199 41 -53 58 -111 74 -265 20 -190 28 -237 58 -327 34
-106 45 -175 47 -298 2 -117 -9 -184 -51 -298 -17 -47 -37 -138 -51 -231 -17
-119 -28 -161 -46 -188 -13 -18 -23 -35 -23 -37 0 -7 63 -26 85 -26 27 0 61
36 70 73 8 30 37 53 102 81 32 14 47 29 62 62 21 43 68 86 108 98 14 5 32 27
47 61 25 52 46 74 116 118 28 19 37 32 47 76 9 42 19 60 49 85 78 64 91 83
109 158 20 85 61 155 104 181 42 24 50 43 62 138 15 120 50 223 97 277 66 79
71 98 76 292 2 58 10 182 19 275 49 525 48 514 24 870 -10 138 -22 321 -27
408 -5 87 -11 161 -14 166 -3 4 -6 84 -7 177 -1 226 -10 271 -65 364 -24 41
-49 93 -55 115 -6 22 -17 58 -24 80 -8 22 -17 112 -20 199 -4 88 -11 169 -15
180 -4 12 -24 38 -44 58 -20 21 -50 68 -67 104 -26 58 -31 85 -38 202 l-9 135
-56 52 c-31 28 -56 56 -56 62 0 7 -7 18 -15 27 -11 10 -19 49 -25 120 -11 121
-20 143 -92 222 -60 64 -63 69 -73 144 -11 80 -40 139 -96 196 -42 42 -52 61
-64 113 -18 74 -33 105 -75 150 -62 67 -96 127 -110 192 -15 72 -32 111 -67
153 -30 36 -27 63 17 133 27 43 34 68 45 164 21 181 39 246 90 319 18 25 39
70 48 100 19 62 47 218 47 262 0 30 28 118 51 160 71 128 96 203 110 323 16
148 31 205 73 269 20 29 36 60 36 70 0 9 4 16 9 16 15 0 41 78 41 123 1 66 26
243 51 345 20 86 21 100 9 165 -7 40 -20 88 -30 107 -10 19 -21 60 -24 91 -8
67 -24 84 -88 98 -26 6 -62 17 -80 25 -18 8 -70 26 -115 41 l-82 26 -38 -20
c-45 -22 -234 -71 -278 -71 -38 0 -127 -41 -180 -83 -61 -49 -87 -59 -240 -93
-93 -20 -124 -34 -145 -64 -23 -33 -100 -68 -187 -86 -130 -26 -153 -34 -191
-68 -64 -56 -107 -76 -234 -105 -156 -37 -155 -36 -206 -87 -50 -50 -100 -68
-231 -84 -84 -11 -87 -12 -131 -58 -82 -85 -163 -108 -362 -99 -145 7 -180 20
-243 86 -53 56 -99 71 -239 81 -67 4 -130 11 -141 15 -59 23 -143 65 -161 83
-52 50 -76 55 -319 63 -223 7 -299 15 -435 44 -36 7 -113 16 -172 20 -59 3
-149 15 -200 27 -149 34 -287 35 -470 3 -84 -15 -191 -29 -238 -32 -47 -2
-119 -11 -160 -19 -130 -25 -229 -34 -445 -44 -230 -10 -273 -18 -325 -59 -83
-66 -164 -90 -375 -112 l-120 -12 -45 -48 c-59 -61 -93 -77 -193 -90 -122 -16
-236 -4 -304 32 -49 26 -68 43 -108 97 -7 8 -54 19 -123 27 -123 15 -197 46
-232 96 -24 33 -49 43 -180 70 -117 24 -164 44 -230 98 -61 51 -58 49 -152 66
-136 25 -185 45 -240 98 -27 26 -53 47 -57 47 -27 0 -240 50 -261 62 -14 7
-50 31 -80 53 -78 57 -110 71 -188 80 -67 9 -200 43 -251 66 -24 10 -46 19
-50 18 -3 -1 -37 -9 -76 -19z"/>
<path d="M9909 9956 c-9 -10 -158 -44 -235 -55 -149 -21 -195 -45 -234 -121
-11 -21 -35 -48 -55 -60 -53 -33 -77 -89 -85 -195 -4 -49 -4 -115 0 -145 15
-108 28 -138 86 -196 30 -30 62 -71 70 -92 22 -52 60 -89 120 -118 29 -13 58
-32 65 -40 16 -20 14 -120 -6 -224 -7 -41 -16 -92 -20 -112 -3 -22 -16 -46
-32 -60 -34 -30 -91 -87 -121 -121 -13 -15 -38 -29 -55 -31 -142 -23 -228 -34
-262 -35 -57 -1 -241 28 -282 46 -62 26 -129 97 -158 171 -40 99 -72 162 -106
207 -23 32 -33 60 -44 126 -7 46 -19 97 -26 111 -15 34 -66 59 -185 88 l-91
23 -60 -37 c-60 -37 -144 -124 -162 -168 -6 -12 -15 -55 -20 -94 -11 -76 0
-130 41 -200 22 -38 54 -130 73 -212 19 -80 42 -124 102 -193 26 -31 68 -84
92 -118 46 -65 106 -113 186 -151 28 -13 71 -43 96 -67 54 -50 98 -68 211 -83
46 -7 122 -18 171 -26 100 -16 246 -18 297 -5 19 6 94 17 165 26 156 20 231
48 266 103 18 26 39 41 81 57 32 11 71 33 87 49 28 27 31 27 101 20 59 -6 90
-16 159 -52 47 -25 110 -67 138 -93 45 -40 64 -50 125 -64 40 -9 111 -21 158
-26 47 -5 110 -14 141 -20 73 -14 206 -7 399 20 176 26 239 49 287 108 20 25
47 44 80 56 75 27 223 174 249 247 14 39 28 59 52 73 34 20 75 82 86 130 4 16
13 75 20 132 9 66 23 124 40 161 33 71 33 82 -4 194 -44 135 -55 155 -101 175
-21 10 -44 24 -50 32 -20 23 -173 7 -239 -26 l-55 -26 -71 -144 c-46 -92 -77
-170 -89 -219 -26 -117 -33 -131 -117 -214 -61 -61 -86 -78 -115 -83 -21 -3
-72 -13 -113 -20 -103 -20 -360 -1 -422 31 -72 37 -188 188 -188 247 0 10 -7
34 -16 55 -19 44 -20 207 -2 230 7 7 41 29 77 47 67 34 92 59 129 132 12 22
39 56 60 74 50 43 66 75 86 173 20 98 13 222 -16 281 -11 22 -41 61 -66 86
-26 25 -56 60 -67 79 -35 59 -91 81 -287 111 -39 6 -95 19 -126 30 -50 17
-200 28 -213 15z"/>
</g>
</svg>
