<?xml version="1.0" encoding="UTF-8" standalone="no"?>
<svg
   width="1293"
   height="192"
   viewBox="0 0 1292.9999 192"
   fill="none"
   version="1.1"
   id="svg312"
   sodipodi:docname="new_meower_logo.svg"
   inkscape:version="1.2.2 (b0a8486541, 2022-12-01)"
   xmlns:inkscape="http://www.inkscape.org/namespaces/inkscape"
   xmlns:sodipodi="http://sodipodi.sourceforge.net/DTD/sodipodi-0.dtd"
   xmlns="http://www.w3.org/2000/svg"
   xmlns:svg="http://www.w3.org/2000/svg">
  <sodipodi:namedview
     id="namedview314"
     pagecolor="#ffffff"
     bordercolor="#000000"
     borderopacity="0.25"
     inkscape:showpageshadow="2"
     inkscape:pageopacity="0.0"
     inkscape:pagecheckerboard="0"
     inkscape:deskcolor="#d1d1d1"
     showgrid="false"
     inkscape:zoom="0.5"
     inkscape:cx="598"
     inkscape:cy="114"
     inkscape:window-width="1366"
     inkscape:window-height="653"
     inkscape:window-x="0"
     inkscape:window-y="0"
     inkscape:window-maximized="1"
     inkscape:current-layer="layer1"
     showguides="false" />
  <defs
     id="defs310">
    <clipPath
       id="clip0_1588_2">
      <rect
         width="720"
         height="192"
         fill="#ffffff"
         id="rect307"
         x="0"
         y="0" />
    </clipPath>
  </defs>
  <g
     inkscape:groupmode="layer"
     id="layer1"
     inkscape:label="Layer 1">
    <path
       d="m 879.5307,139.0465 v 4.22 8.018 c 0,0.985 -0.352,1.829 -1.055,2.532 -0.563,0.703 -1.336,1.055 -2.321,1.055 h -55.70395 c 0.844,4.923 2.743,8.581 5.697,10.972 3.657,3.235 9.847,4.853 18.568,4.853 5.486,0 10.47995,-1.407 14.98095,-4.22 1.688,-1.125 3.165,-0.914 4.431,0.633 1.407,1.547 5.064,5.697 10.972,12.449 0.703,0.703 0.985,1.547 0.844,2.532 0,0.985 -0.422,1.829 -1.266,2.532 -8.862,6.33 -18.849,9.495 -29.96195,9.495 -14.489,0 -25.742,-3.517 -33.76,-10.55 -9.706,-8.159 -14.559,-21.592 -14.559,-40.301 v -0.211 c 0,-18.146 3.939,-31.369 11.816,-39.668 7.033,-7.4552 16.95,-11.1829 29.751,-11.1829 12.801,0 22.71795,3.7277 29.75095,11.1829 7.315,7.596 11.253,19.482 11.816,35.659 z m -59.71295,0 h 36.29195 c -0.141,-9.425 -1.899,-15.895 -5.27495,-19.412 -2.532,-2.673 -6.822,-4.009 -12.871,-4.009 -6.049,0 -10.339,1.336 -12.871,4.009 -3.376,3.517 -5.134,9.987 -5.275,19.412 z m 155.27095,1.899 c 0,0 0,0.774 0,2.321 0,1.407 0,2.11 0,2.11 0,17.865 -4.1489,30.736 -12.449,38.613 -6.892,6.471 -16.387,9.847 -28.4849,10.128 h -0.4221 c -12.0969,-0.281 -21.592,-3.657 -28.4849,-10.128 -8.299,-7.877 -12.449,-20.748 -12.449,-38.613 0,-0.844 0,-1.547 0,-2.11 0,-0.703 0,-1.477 0,-2.321 0,-17.865 4.15,-30.736 12.449,-38.613 6.893,-6.4706 16.388,-9.8466 28.4849,-10.1279 h 0.4221 c 12.0979,0.2813 21.593,3.6573 28.4849,10.1279 8.3,7.877 12.449,20.748 12.449,38.613 z m -23.421,4.431 c 0,-0.563 0,-1.196 0,-1.899 v -0.633 c 0,-1.266 0,-1.899 0,-1.899 0,-5.627 -0.351,-10.128 -1.055,-13.504 -0.562,-3.376 -1.899,-6.049 -4.009,-8.018 -2.532,-2.391 -6.752,-3.657 -12.66,-3.798 -5.908,0.141 -10.128,1.407 -12.66,3.798 -2.11,1.969 -3.516,4.642 -4.22,8.018 -0.562,3.376 -0.844,7.877 -0.844,13.504 0,0.703 0,1.336 0,1.899 v 0.633 c 0,0.563 0,1.196 0,1.899 0,2.251 0,4.079 0,5.486 0,1.407 0.071,3.024 0.211,4.853 0.282,1.688 0.563,3.165 0.844,4.431 0.422,1.266 0.915,2.532 1.477,3.798 0.704,1.125 1.548,2.11 2.532,2.954 2.532,2.391 6.752,3.657 12.66,3.798 5.908,-0.141 10.128,-1.407 12.66,-3.798 1.407,-1.407 2.532,-3.306 3.376,-5.697 0.844,-2.391 1.337,-4.642 1.477,-6.752 0.1411,-2.251 0.211,-5.275 0.211,-9.073 z m 170.2571,-51.0619 c 1.1259,0 2.0399,0.4923 2.7429,1.477 0.704,0.9847 0.915,2.0397 0.633,3.165 -1.969,6.3299 -6.892,22.1549 -14.77,47.4749 -7.736,25.32 -12.0969,39.668 -13.082,43.044 -0.562,1.688 -1.688,2.532 -3.376,2.532 h -19.201 c -1.828,0 -2.954,-0.844 -3.376,-2.532 l -17.0909,-55.282 c -9.002,29.54 -14.629,47.967 -16.8801,55.282 -0.5619,1.688 -1.688,2.532 -3.376,2.532 h -19.412 c -1.688,0 -2.743,-0.844 -3.165,-2.532 -1.125,-3.376 -3.6569,-11.464 -7.596,-24.265 -3.938,-12.941 -7.9469,-26.023 -12.027,-39.246 -4.079,-13.223 -6.8219,-22.225 -8.229,-27.0079 -0.422,-1.1253 -0.281,-2.1803 0.422,-3.165 0.704,-0.9847 1.688,-1.477 2.954,-1.477 h 17.091 c 1.688,0 2.814,0.844 3.376,2.532 l 16.88,55.2819 c 9.144,-29.54 14.841,-47.967 17.091,-55.2819 0.422,-1.688 1.548,-2.532 3.376,-2.532 h 19.201 c 1.688,0 2.814,0.844 3.376,2.532 l 16.88,55.2819 c 9.144,-29.54 14.841,-47.967 17.091,-55.2819 0.422,-1.688 1.548,-2.532 3.376,-2.532 z m 94.794,44.7319 v 4.22 8.018 c 0,0.985 -0.352,1.829 -1.055,2.532 -0.5631,0.703 -1.336,1.055 -2.321,1.055 h -55.704 c 0.844,4.923 2.743,8.581 5.697,10.972 3.6569,3.235 9.847,4.853 18.568,4.853 5.486,0 10.48,-1.407 14.981,-4.22 1.688,-1.125 3.165,-0.914 4.431,0.633 1.407,1.547 5.064,5.697 10.972,12.449 0.703,0.703 0.9849,1.547 0.844,2.532 0,0.985 -0.422,1.829 -1.266,2.532 -8.8621,6.33 -18.849,9.495 -29.962,9.495 -14.489,0 -25.742,-3.517 -33.76,-10.55 -9.706,-8.159 -14.559,-21.592 -14.559,-40.301 v -0.211 c 0,-18.146 3.939,-31.369 11.816,-39.668 7.033,-7.4552 16.95,-11.1829 29.751,-11.1829 12.801,0 22.718,3.7277 29.751,11.1829 7.315,7.596 11.2529,19.482 11.816,35.659 z m -59.713,0 h 36.292 c -0.1411,-9.425 -1.899,-15.895 -5.2751,-19.412 -2.5319,-2.673 -6.8219,-4.009 -12.871,-4.009 -6.049,0 -10.339,1.336 -12.871,4.009 -3.376,3.517 -5.134,9.987 -5.2749,19.412 z m 131.85,-46.8419 c 0.844,0.1407 1.547,0.4923 2.1099,1.055 0.703,0.5627 1.0551,1.266 1.0551,2.11 v 22.1549 c 0,1.266 -0.492,2.251 -1.4771,2.954 -0.9849,0.703 -2.04,0.844 -3.165,0.422 -3.2349,-1.125 -6.049,-1.688 -8.44,-1.688 -3.2349,-0.141 -6.26,0.422 -9.073,1.688 -2.673,1.125 -4.923,2.673 -6.752,4.642 -1.688,1.969 -3.024,3.728 -4.009,5.275 -0.985,1.407 -1.758,2.884 -2.321,4.431 v 53.172 c 0,0.985 -0.352,1.829 -1.055,2.532 -0.703,0.703 -1.547,1.055 -2.532,1.055 h -16.247 c -0.985,0 -1.829,-0.352 -2.532,-1.055 -0.703,-0.703 -1.055,-1.547 -1.055,-2.532 V 97.9016 c 0,-0.9847 0.352,-1.8287 1.055,-2.532 0.703,-0.7033 1.547,-1.055 2.532,-1.055 h 16.247 c 0.985,0 1.829,0.3517 2.532,1.055 0.703,0.7033 1.055,1.5473 1.055,2.532 v 7.3849 c 9.003,-9.0026 19.693,-13.3632 32.0721,-13.0819 z"
       fill="#f9a535"
       id="path299"
       style="fill:#57e389" />
    <path
       fill-rule="evenodd"
       clip-rule="evenodd"
       d="m 572.29175,6.5075 c 0,-2.20914 1.79086,-4 4,-4 h 8.5 7.0624 3.2565 c 0.9867,0 1.9385,0.36468 2.6726,1.02395 l 2.4229,2.17588 72.7606,65.34297 c 1.52,1.3652 3.825,1.3652 5.345,0 l 72.761,-65.34296 2.423,-2.1759 c 0.734,-0.65926 1.686,-1.02394 2.672,-1.02394 h 3.257 7.062 8.5 c 2.209,0 4,1.79086 4,4 v 8.5 166.134 8.5 c 0,2.21 -1.791,4 -4,4 h -17 c -2.209,0 -4,-1.79 -4,-4 v -8.5 V 45.66 c 0,-3.461 -4.097,-5.2886 -6.672,-2.976 l -63.002,56.5791 -2.423,2.1759 c -0.734,0.6595 -1.686,1.0235 -2.673,1.0235 h -3.256 -0.642 -3.257 c -0.9866,0 -1.9385,-0.364 -2.6726,-1.0235 l -2.4229,-2.1759 -63.0018,-56.5791 c -2.5751,-2.3126 -6.6727,-0.485 -6.6727,2.9761 v 135.4814 8.5 c 0,2.21 -1.7909,4 -4,4 h -17 c -2.20914,0 -4,-1.79 -4,-4 v -8.5 -166.134 z"
       fill="#f9a535"
       id="path301"
       style="fill:#57e389" />
    <path
       fill-rule="evenodd"
       clip-rule="evenodd"
       d="m 655.09445,119.9775 c 0,-4.334 3.5312,-7.865 7.8649,-7.865 4.3337,0 7.8649,3.531 7.8649,7.865 0,4.333 -3.5312,7.864 -7.8649,7.864 -4.3337,0 -7.8649,-3.531 -7.8649,-7.864 z m 20.5453,16.853 c -4.4946,0 -8.0257,1.123 -8.0257,4.333 0,2.624 1.7152,5.783 5.3207,6.85 -0.455,4.499 -4.4236,8.195 -9.0127,8.195 -4.9247,0 -9.0566,-3.902 -9.0566,-9.056 0,-1.381 -1.1193,-2.5 -2.5,-2.5 -1.3807,0 -2.5,1.119 -2.5,2.5 0,8.006 6.4617,14.056 14.0566,14.056 4.7033,0 8.9427,-2.431 11.5067,-6.083 2.561,3.723 6.863,6.083 11.606,6.083 7.641,0 14.057,-6.416 14.057,-14.056 0,-1.381 -1.119,-2.5 -2.5,-2.5 -1.381,0 -2.5,1.119 -2.5,2.5 0,4.878 -4.177,9.056 -9.057,9.056 -4.614,0 -8.532,-3.425 -9.008,-8.097 3.822,-0.939 5.638,-4.114 5.638,-6.948 0,-3.37 -3.531,-4.333 -8.025,-4.333 z m 12.84,-24.718 c -4.334,0 -7.865,3.531 -7.865,7.865 0,4.333 3.531,7.864 7.865,7.864 4.334,0 7.865,-3.531 7.865,-7.864 0,-4.334 -3.531,-7.865 -7.865,-7.865 z"
       fill="#f9a535"
       id="path303"
       style="fill:#57e389" />
    <path
       id="text586"
       style="font-size:209.333px;fill:#57e389"
       d="M 5.9355469 62.427734 C 4.9586606 62.427734 4.1216041 62.776833 3.4238281 63.474609 C 2.7260522 64.03283 2.3769531 64.800457 2.3769531 65.777344 L 2.3769531 189.07422 C 2.3769531 190.05111 2.7260522 190.88816 3.4238281 191.58594 C 4.1216041 192.28371 4.9586606 192.63281 5.9355469 192.63281 L 53.873047 192.63281 C 65.177017 192.63281 74.876502 188.65582 82.970703 180.70117 C 91.064904 172.60697 95.111328 162.83806 95.111328 151.39453 C 95.111328 146.37054 94.064031 141.90364 91.970703 137.99609 C 90.01693 133.94899 87.785431 130.88044 85.273438 128.78711 C 82.900999 126.55423 80.11016 124.66987 76.900391 123.13477 C 73.830176 121.4601 71.666153 120.48224 70.410156 120.20312 C 69.15416 119.78446 68.178245 119.50674 67.480469 119.36719 L 69.363281 119.15625 C 70.758833 119.01669 72.434899 118.52874 74.388672 117.69141 C 76.342445 116.71452 78.294274 115.52836 80.248047 114.13281 C 82.20182 112.73726 83.808456 110.64462 85.064453 107.85352 C 86.460005 104.92286 87.15625 101.57268 87.15625 97.804688 C 87.15625 91.385149 85.551566 85.454371 82.341797 80.011719 C 79.271583 74.569066 75.014918 70.312402 69.572266 67.242188 C 64.129613 64.032418 58.198836 62.427734 51.779297 62.427734 L 5.9355469 62.427734 z M 232.43359 65.357422 C 231.59626 65.496977 230.82864 65.917458 230.13086 66.615234 C 229.43308 67.173455 229.08398 67.941082 229.08398 68.917969 L 229.08398 94.455078 L 222.5957 94.455078 C 221.89793 94.455078 221.26916 94.59589 220.71094 94.875 C 220.15272 95.15411 219.73419 95.572639 219.45508 96.130859 C 219.17597 96.68908 219.03711 97.246467 219.03711 97.804688 L 219.03711 114.13281 C 219.03711 115.1097 219.38621 115.94676 220.08398 116.64453 C 220.78176 117.20275 221.61882 117.48242 222.5957 117.48242 L 229.08398 117.48242 L 229.08398 160.81445 C 229.08398 171.83931 231.73597 180.28126 237.03906 186.14258 C 242.06305 191.86434 248.97169 194.72656 257.76367 194.72656 C 266.55565 194.72656 275.34669 192.28482 284.13867 187.40039 C 284.976 186.84217 285.46591 186.07454 285.60547 185.09766 C 285.88458 184.12077 285.74377 183.21233 285.18555 182.375 C 280.44067 175.67635 277.2313 171.14197 275.55664 168.76953 C 274.4402 167.23442 273.0438 166.8159 271.36914 167.51367 C 270.95048 167.65323 269.76432 168.14118 267.81055 168.97852 C 265.99633 169.67629 264.53246 170.23368 263.41602 170.65234 C 260.76447 171.62923 258.25134 171.35151 255.87891 169.81641 C 253.50647 168.14174 252.32031 165.90829 252.32031 163.11719 L 252.32031 117.69141 L 279.32422 117.69141 C 280.30111 117.69141 281.06873 117.34231 281.62695 116.64453 C 282.32473 115.94676 282.67383 115.1097 282.67383 114.13281 L 282.67383 97.804688 C 282.67383 96.827801 282.32473 96.060174 281.62695 95.501953 C 280.92918 94.804177 280.16155 94.455078 279.32422 94.455078 L 252.32031 94.455078 L 252.32031 68.917969 L 252.32031 68.707031 L 252.32031 68.498047 C 252.18076 67.939826 251.97247 67.451869 251.69336 67.033203 L 251.69336 66.824219 L 251.48242 66.824219 L 251.48242 66.615234 L 251.27344 66.615234 C 251.27344 66.475679 251.20401 66.334868 251.06445 66.195312 L 250.85547 66.195312 L 250.85547 65.986328 C 250.29725 65.707218 249.66848 65.496977 248.9707 65.357422 L 248.76172 65.357422 L 232.43359 65.357422 z M 318.67969 65.357422 C 317.84236 65.496977 317.07473 65.917458 316.37695 66.615234 C 315.67918 67.173455 315.33008 67.941082 315.33008 68.917969 L 315.33008 94.455078 L 308.83984 94.455078 C 308.14207 94.455078 307.51525 94.59589 306.95703 94.875 C 306.39881 95.15411 305.98028 95.572639 305.70117 96.130859 C 305.42206 96.68908 305.28125 97.246467 305.28125 97.804688 L 305.28125 114.13281 C 305.28125 115.1097 305.63035 115.94676 306.32812 116.64453 C 307.0259 117.20275 307.86296 117.48242 308.83984 117.48242 L 315.33008 117.48242 L 315.33008 160.81445 C 315.33008 171.83931 317.98206 180.28126 323.28516 186.14258 C 328.30914 191.86434 335.21584 194.72656 344.00781 194.72656 C 352.79979 194.72656 361.59279 192.28482 370.38477 187.40039 C 371.2221 186.84217 371.71005 186.07454 371.84961 185.09766 C 372.12872 184.12077 371.98986 183.21233 371.43164 182.375 C 366.68676 175.67635 363.4774 171.14197 361.80273 168.76953 C 360.68629 167.23442 359.2899 166.8159 357.61523 167.51367 C 357.19657 167.65323 356.01041 168.14118 354.05664 168.97852 C 352.24242 169.67629 350.7766 170.23368 349.66016 170.65234 C 347.00861 171.62923 344.49744 171.35151 342.125 169.81641 C 339.75256 168.14174 338.56641 165.90829 338.56641 163.11719 L 338.56641 117.69141 L 365.57031 117.69141 C 366.5472 117.69141 367.31483 117.34231 367.87305 116.64453 C 368.57082 115.94676 368.91992 115.1097 368.91992 114.13281 L 368.91992 97.804688 C 368.91992 96.827801 368.57082 96.060174 367.87305 95.501953 C 367.17527 94.804177 366.40764 94.455078 365.57031 94.455078 L 338.56641 94.455078 L 338.56641 68.917969 L 338.56641 68.707031 L 338.56641 68.498047 C 338.42685 67.939826 338.21661 67.451869 337.9375 67.033203 L 337.9375 66.824219 L 337.72852 66.824219 L 337.72852 66.615234 L 337.51953 66.615234 C 337.51953 66.475679 337.4501 66.334868 337.31055 66.195312 L 337.10156 66.195312 L 337.10156 65.986328 C 336.54334 65.707218 335.91457 65.496977 335.2168 65.357422 L 335.00781 65.357422 L 318.67969 65.357422 z M 25.613281 85.455078 L 51.779297 85.455078 C 55.128621 85.455078 57.990843 86.710663 60.363281 89.222656 C 62.875275 91.595094 64.130859 94.455363 64.130859 97.804688 C 64.130859 101.15401 62.875275 104.08566 60.363281 106.59766 C 57.990843 108.97009 55.128621 110.15625 51.779297 110.15625 L 25.613281 110.15625 L 25.613281 85.455078 z M 158.33008 93.619141 C 145.63056 93.619141 135.79221 97.316466 128.81445 104.71289 C 120.99936 112.94665 117.0918 126.06574 117.0918 144.06836 L 117.0918 144.27734 C 117.0918 162.83818 121.90585 176.16556 131.53516 184.25977 C 139.4898 191.23753 150.65511 194.72656 165.0293 194.72656 C 176.05416 194.72656 185.96193 191.58662 194.75391 185.30664 C 195.59124 184.60886 196.00977 183.77181 196.00977 182.79492 C 196.14932 181.81804 195.8716 180.97903 195.17383 180.28125 C 189.31251 173.5826 185.68266 169.46675 184.28711 167.93164 C 183.03111 166.39653 181.56724 166.18629 179.89258 167.30273 C 175.42681 170.09384 170.47195 171.49023 165.0293 171.49023 C 156.37688 171.49023 150.23586 169.88555 146.60742 166.67578 C 143.67676 164.30334 141.79241 160.67545 140.95508 155.79102 L 196.21875 155.79102 C 197.19564 155.79102 197.96326 155.44192 198.52148 154.74414 C 199.21926 154.04636 199.56836 153.20931 199.56836 152.23242 L 199.56836 144.27734 L 199.56836 140.08984 C 199.01014 124.041 195.10257 112.24887 187.8457 104.71289 C 180.86794 97.316466 171.0296 93.619141 158.33008 93.619141 z M 433.18359 93.619141 C 420.48407 93.619141 410.64573 97.316466 403.66797 104.71289 C 395.85288 112.94665 391.94531 126.06574 391.94531 144.06836 L 391.94531 144.27734 C 391.94531 162.83818 396.76132 176.16556 406.39062 184.25977 C 414.34527 191.23753 425.50863 194.72656 439.88281 194.72656 C 450.90767 194.72656 460.8174 191.58662 469.60938 185.30664 C 470.44671 184.60886 470.86523 183.77181 470.86523 182.79492 C 471.00479 181.81804 470.72512 180.97903 470.02734 180.28125 C 464.16603 173.5826 460.53813 169.46675 459.14258 167.93164 C 457.88658 166.39653 456.42076 166.18629 454.74609 167.30273 C 450.28033 170.09384 445.32546 171.49023 439.88281 171.49023 C 431.23039 171.49023 425.08937 169.88555 421.46094 166.67578 C 418.53028 164.30334 416.64788 160.67545 415.81055 155.79102 L 471.07422 155.79102 C 472.05111 155.79102 472.81873 155.44192 473.37695 154.74414 C 474.07473 154.04636 474.42383 153.20931 474.42383 152.23242 L 474.42383 144.27734 L 474.42383 140.08984 C 473.86561 124.041 469.95804 112.24887 462.70117 104.71289 C 455.72341 97.316466 445.88312 93.619141 433.18359 93.619141 z M 554.19922 93.619141 C 542.88217 93.897161 533.03542 98.224345 524.66211 106.59766 L 524.66211 99.269531 C 524.66211 98.292645 524.31301 97.455588 523.61523 96.757812 C 522.91746 96.060037 522.0804 95.710938 521.10352 95.710938 L 504.98633 95.710938 C 504.00944 95.710938 503.17043 96.060037 502.47266 96.757812 C 501.77488 97.455588 501.42773 98.292645 501.42773 99.269531 L 501.42773 189.07422 C 501.42773 190.05111 501.77488 190.88816 502.47266 191.58594 C 503.17043 192.28371 504.00944 192.63281 504.98633 192.63281 L 521.10352 192.63281 C 522.0804 192.63281 522.91746 192.28371 523.61523 191.58594 C 524.31301 190.88816 524.66211 190.05111 524.66211 189.07422 L 524.66211 136.32227 C 525.22033 134.78716 525.98796 133.32133 526.96484 131.92578 C 527.94173 130.39067 529.2687 128.64713 530.94336 126.69336 C 532.75758 124.73959 534.98908 123.20433 537.64062 122.08789 C 540.43173 120.83189 543.43281 120.27255 546.64258 120.41211 C 549.01502 120.41211 551.80586 120.97145 555.01562 122.08789 C 556.13207 122.50656 557.17936 122.36574 558.15625 121.66797 C 559.13314 120.97019 559.62109 119.99428 559.62109 118.73828 L 559.62109 96.757812 C 559.62109 95.920481 559.27199 95.222283 558.57422 94.664062 C 558.016 94.105842 557.31975 93.758696 556.48242 93.619141 C 555.71487 93.601696 554.95369 93.600606 554.19922 93.619141 z M 158.33008 116.85352 C 164.33095 116.85352 168.58762 118.18048 171.09961 120.83203 C 174.44893 124.32091 176.19248 130.73965 176.33203 140.08984 L 140.32812 140.08984 C 140.46768 130.73965 142.21122 124.32091 145.56055 120.83203 C 148.07254 118.18048 152.32921 116.85352 158.33008 116.85352 z M 433.18359 116.85352 C 439.18447 116.85352 443.44113 118.18048 445.95312 120.83203 C 449.30245 124.32091 451.04794 130.73965 451.1875 140.08984 L 415.18164 140.08984 C 415.3212 130.73965 417.06669 124.32091 420.41602 120.83203 C 422.92801 118.18048 427.18272 116.85352 433.18359 116.85352 z M 25.613281 133.39062 L 53.873047 133.39062 C 57.082816 133.39062 60.083896 134.22963 62.875 135.9043 C 65.666104 137.4394 67.828174 139.60147 69.363281 142.39258 C 71.037944 145.18368 71.875 148.18476 71.875 151.39453 C 71.875 156.41852 70.131458 160.67518 66.642578 164.16406 C 63.153698 167.65294 58.897034 169.39648 53.873047 169.39648 L 25.613281 169.39648 L 25.613281 133.39062 z " />
  </g>
</svg>
